<svg xmlns="http://www.w3.org/2000/svg" viewBox="0 0 900 848" font-family="Helvetica,Arial,sans-serif">
<defs>
 <radialGradient id="wg" cx="45%" cy="60%" r="80%"><stop offset="0%" stop-color="#0c1f31"/><stop offset="55%" stop-color="#102639"/><stop offset="100%" stop-color="#13293c"/></radialGradient>
 <filter id="glow"><feGaussianBlur stdDeviation="2.2" result="b"/><feMerge><feMergeNode in="b"/><feMergeNode in="SourceGraphic"/></feMerge></filter>
</defs>
<rect width="900" height="848" fill="#0a1420"/>
<g stroke="#ffffff" stroke-opacity="0.025"><line x1="60" y1="0" x2="60" y2="848"/><line x1="120" y1="0" x2="120" y2="848"/><line x1="180" y1="0" x2="180" y2="848"/><line x1="240" y1="0" x2="240" y2="848"/><line x1="300" y1="0" x2="300" y2="848"/><line x1="360" y1="0" x2="360" y2="848"/><line x1="420" y1="0" x2="420" y2="848"/><line x1="480" y1="0" x2="480" y2="848"/><line x1="540" y1="0" x2="540" y2="848"/><line x1="600" y1="0" x2="600" y2="848"/><line x1="660" y1="0" x2="660" y2="848"/><line x1="720" y1="0" x2="720" y2="848"/><line x1="780" y1="0" x2="780" y2="848"/><line x1="840" y1="0" x2="840" y2="848"/><line x1="0" y1="60" x2="900" y2="60"/><line x1="0" y1="120" x2="900" y2="120"/><line x1="0" y1="180" x2="900" y2="180"/><line x1="0" y1="240" x2="900" y2="240"/><line x1="0" y1="300" x2="900" y2="300"/><line x1="0" y1="360" x2="900" y2="360"/><line x1="0" y1="420" x2="900" y2="420"/><line x1="0" y1="480" x2="900" y2="480"/><line x1="0" y1="540" x2="900" y2="540"/><line x1="0" y1="600" x2="900" y2="600"/><line x1="0" y1="660" x2="900" y2="660"/><line x1="0" y1="720" x2="900" y2="720"/><line x1="0" y1="780" x2="900" y2="780"/><line x1="0" y1="840" x2="900" y2="840"/></g>
<path d="M 461.3,577.8 L 471.6,574.2 L 481.0,574.0 L 488.4,566.4 L 493.3,565.6 L 495.8,562.5 L 499.6,562.7 L 502.0,557.3 L 508.8,558.7 L 515.4,550.8 L 512.4,547.6 L 513.1,544.7 L 511.4,545.8 L 507.5,543.5 L 505.8,545.6 L 507.9,548.9 L 503.8,547.5 L 504.6,540.9 L 500.4,535.6 L 500.7,525.0 L 494.0,517.5 L 489.0,517.6 L 492.7,513.1 L 497.1,512.6 L 497.1,505.9 L 499.0,507.7 L 503.9,506.7 L 507.2,501.1 L 519.7,495.9 L 529.7,493.7 L 529.5,497.2 L 531.9,490.5 L 533.8,491.0 L 532.8,499.9 L 535.9,496.4 L 539.5,497.3 L 538.4,501.6 L 544.2,505.1 L 543.0,507.6 L 546.0,510.4 L 552.4,506.4 L 561.1,505.0 L 570.1,493.4 L 569.0,491.0 L 573.7,491.0 L 575.0,488.2 L 571.4,479.2 L 579.2,476.0 L 593.5,453.0 L 591.6,453.9 L 587.6,448.0 L 595.5,447.2 L 593.9,442.0 L 597.1,437.4 L 598.8,438.4 L 601.3,429.9 L 607.1,426.2 L 606.1,423.6 L 610.2,423.9 L 615.5,418.4 L 615.5,414.0 L 617.5,415.9 L 623.3,411.1 L 620.1,407.1 L 626.6,409.3 L 629.5,406.8 L 630.7,396.7 L 625.1,380.9 L 627.4,378.2 L 625.5,375.4 L 627.7,369.9 L 627.7,361.0 L 620.5,342.6 L 627.5,328.8 L 633.6,325.6 L 638.1,314.1 L 647.5,312.7 L 647.2,309.1 L 649.5,312.3 L 651.9,311.4 L 656.0,306.7 L 662.8,306.5 L 668.1,301.0 L 672.1,300.5 L 674.9,293.3 L 680.8,289.0 L 685.5,277.4 L 690.6,275.0 L 692.1,270.2 L 696.1,269.7 L 717.9,248.1 L 725.6,231.6 L 740.2,216.3 L 748.1,211.2 L 747.9,208.1 L 754.6,204.8 L 777.1,207.7 L 789.6,196.8 L 792.4,188.2 L 792.3,178.3 L 795.9,169.2 L 821.8,153.6 L 823.5,150.4 L 830.0,150.0 L 828.5,156.6 L 822.5,156.0 L 801.2,169.5 L 790.1,202.4 L 774.5,212.8 L 767.3,209.7 L 754.2,209.3 L 733.7,229.5 L 732.8,236.2 L 727.7,238.0 L 725.4,246.6 L 695.0,276.2 L 691.5,283.6 L 686.8,287.0 L 674.1,304.2 L 663.5,313.1 L 658.5,314.1 L 657.2,316.7 L 654.6,316.1 L 655.1,318.8 L 651.5,318.3 L 642.7,323.5 L 643.1,347.3 L 649.7,346.7 L 646.5,353.4 L 642.6,351.9 L 646.6,361.3 L 642.9,359.8 L 641.2,363.5 L 645.4,371.5 L 651.0,377.9 L 654.9,378.9 L 655.5,381.5 L 654.3,387.9 L 656.2,390.0 L 651.2,398.4 L 650.0,406.9 L 635.1,415.1 L 617.5,431.2 L 617.9,434.5 L 610.5,439.2 L 607.8,448.6 L 611.8,452.4 L 610.2,453.1 L 612.1,455.7 L 611.9,466.1 L 603.1,473.0 L 594.2,476.5 L 593.5,478.7 L 598.8,480.6 L 596.7,487.1 L 588.4,484.9 L 586.7,487.3 L 583.8,494.1 L 585.3,497.5 L 582.3,502.4 L 590.1,506.2 L 583.8,505.1 L 579.9,506.9 L 580.4,509.4 L 582.9,510.1 L 576.0,515.3 L 581.0,519.4 L 580.4,521.9 L 573.7,525.7 L 573.4,520.7 L 567.9,525.6 L 559.7,527.8 L 552.1,533.0 L 547.9,533.0 L 551.4,534.4 L 551.4,538.8 L 544.8,539.6 L 539.1,536.6 L 536.6,538.4 L 545.2,555.1 L 545.7,560.1 L 542.6,565.1 L 540.5,563.8 L 536.5,566.1 L 538.2,569.0 L 536.0,570.7 L 530.8,571.9 L 528.1,570.3 L 527.8,573.1 L 523.0,572.5 L 522.6,574.9 L 530.4,575.2 L 536.3,581.6 L 533.0,584.4 L 531.7,582.6 L 527.9,583.4 L 528.5,585.3 L 525.7,586.5 L 528.7,587.5 L 528.3,590.2 L 523.9,591.0 L 519.8,586.9 L 515.1,590.4 L 514.0,597.2 L 510.1,599.4 L 508.0,595.7 L 484.9,599.4 L 482.7,596.9 L 477.3,598.4 L 468.9,595.2 L 466.1,596.9 L 460.7,593.7 L 464.1,597.5 L 461.4,607.9 L 463.5,608.5 L 459.7,608.7 L 456.4,599.5 L 453.9,597.8 L 456.3,610.0 L 451.3,608.7 L 451.6,615.6 L 446.8,613.2 L 442.7,618.4 L 438.2,619.2 L 438.9,623.8 L 435.0,619.6 L 433.6,621.4 L 436.1,629.7 L 439.8,632.6 L 438.6,637.0 L 435.4,636.8 L 432.1,631.6 L 422.6,629.8 L 420.0,631.6 L 419.1,637.9 L 416.4,638.5 L 414.6,633.6 L 409.0,632.2 L 398.9,638.1 L 398.4,633.1 L 392.9,629.5 L 386.4,635.6 L 386.7,625.0 L 381.3,619.6 L 376.6,620.3 L 375.1,627.9 L 373.5,623.3 L 369.0,620.1 L 365.2,620.9 L 363.1,626.1 L 358.4,626.4 L 358.0,623.9 L 337.7,616.9 L 338.0,608.5 L 329.8,604.5 L 328.2,597.8 L 311.1,593.1 L 305.1,588.2 L 298.7,591.0 L 293.5,587.5 L 288.5,593.3 L 286.4,588.3 L 284.2,588.3 L 283.8,584.6 L 280.7,584.9 L 287.4,577.7 L 278.4,565.1 L 275.2,569.0 L 275.0,576.2 L 271.7,573.7 L 265.3,577.9 L 248.1,580.1 L 248.6,576.8 L 242.4,576.4 L 243.9,571.1 L 231.6,559.8 L 227.8,546.6 L 221.5,548.1 L 223.8,552.2 L 221.9,556.3 L 219.1,557.2 L 218.4,555.2 L 215.8,555.3 L 215.6,551.5 L 211.5,558.0 L 204.6,554.8 L 200.2,556.4 L 198.3,554.0 L 185.2,551.3 L 182.4,553.3 L 181.6,559.5 L 178.8,561.0 L 177.4,551.0 L 174.0,550.3 L 171.8,552.3 L 173.8,554.9 L 172.2,558.4 L 166.2,565.3 L 142.9,570.0 L 139.5,563.8 L 133.0,563.0 L 129.4,566.0 L 127.3,560.8 L 121.5,559.7 L 117.8,555.4 L 96.2,545.2 L 88.9,543.2 L 89.7,546.6 L 75.3,553.6 L 75.2,548.4 L 70.0,547.2 L 72.1,546.2 L 75.1,535.3 L 84.3,524.4 L 101.0,526.9 L 106.6,524.0 L 106.3,526.5 L 111.5,525.3 L 109.0,531.2 L 110.5,533.0 L 116.0,534.3 L 118.3,539.4 L 123.2,537.8 L 124.1,542.3 L 132.2,545.5 L 134.2,542.2 L 131.5,528.1 L 127.2,522.4 L 129.6,517.1 L 136.2,526.2 L 138.3,534.2 L 145.2,536.8 L 146.5,543.6 L 155.2,540.3 L 153.9,530.7 L 157.8,522.7 L 157.1,520.4 L 167.5,527.0 L 167.4,529.3 L 161.9,531.4 L 165.2,535.2 L 169.2,534.5 L 170.4,526.6 L 174.9,534.2 L 179.2,531.5 L 182.5,533.6 L 193.0,533.3 L 207.5,526.0 L 207.7,519.3 L 211.2,510.1 L 216.7,508.7 L 214.3,512.4 L 215.1,518.8 L 226.7,519.1 L 232.5,516.7 L 237.6,519.1 L 254.5,531.3 L 258.3,536.4 L 258.5,541.3 L 263.4,545.9 L 270.6,544.4 L 279.2,538.9 L 276.2,546.3 L 277.6,548.4 L 274.1,551.4 L 281.4,550.5 L 283.2,554.4 L 287.1,555.7 L 289.6,552.9 L 296.0,553.5 L 296.9,551.6 L 303.0,556.1 L 306.7,555.9 L 314.5,564.7 L 304.5,561.2 L 300.5,563.6 L 305.0,572.2 L 312.2,580.0 L 322.7,580.0 L 329.9,584.4 L 341.9,587.8 L 342.9,590.6 L 349.9,592.0 L 350.8,594.6 L 356.5,594.8 L 362.0,598.1 L 378.7,596.4 L 387.7,588.3 L 390.4,593.0 L 394.6,593.1 L 394.9,595.3 L 417.7,598.9 L 423.7,589.4 L 426.5,590.3 L 441.4,580.1 L 447.6,581.7 L 459.4,576.7 L 461.3,577.8 Z" fill="#241f19" fill-opacity="0.9" stroke="#8ea6be" stroke-opacity="0.5" stroke-width="1.2" stroke-dasharray="5 4"/>
<path d="M 461.2,578.1 L 471.7,574.6 L 481.2,574.3 L 488.6,566.8 L 493.4,565.9 L 496.0,562.9 L 499.8,563.1 L 502.3,557.7 L 509.0,559.0 L 515.8,551.0 L 512.8,547.5 L 513.2,544.3 L 511.4,545.3 L 507.4,543.2 L 505.4,545.5 L 506.9,548.1 L 504.2,547.2 L 504.9,540.8 L 500.8,535.5 L 501.1,524.8 L 494.2,517.2 L 489.9,517.2 L 492.9,513.5 L 497.4,512.9 L 497.5,506.9 L 499.0,508.1 L 504.1,507.1 L 507.5,501.5 L 519.9,496.3 L 529.3,494.2 L 529.7,497.6 L 532.1,491.0 L 533.3,491.3 L 532.5,500.1 L 536.1,496.9 L 539.0,497.6 L 538.0,501.8 L 543.7,505.3 L 542.6,507.8 L 546.0,510.8 L 552.6,506.8 L 561.3,505.4 L 570.5,493.6 L 569.6,491.4 L 574.0,491.3 L 575.4,488.1 L 571.9,479.4 L 579.6,476.2 L 593.9,453.1 L 591.7,453.4 L 588.3,448.3 L 595.8,447.5 L 594.3,442.1 L 597.2,437.9 L 599.1,438.6 L 601.6,430.1 L 607.4,426.4 L 606.7,424.0 L 610.4,424.3 L 615.8,418.6 L 615.9,414.9 L 617.7,416.3 L 623.6,411.4 L 621.2,407.9 L 626.6,409.7 L 629.9,406.9 L 631.1,396.6 L 625.5,381.0 L 627.8,378.2 L 625.9,375.4 L 628.1,369.9 L 628.1,361.0 L 621.0,342.7 L 627.8,329.1 L 634.0,325.8 L 638.4,314.5 L 647.6,313.0 L 647.7,310.5 L 649.4,312.7 L 652.0,311.8 L 656.2,307.1 L 663.0,306.8 L 668.3,301.4 L 672.4,300.8 L 675.2,293.5 L 681.1,289.2 L 685.8,277.7 L 690.9,275.3 L 692.4,270.5 L 696.3,270.0 L 718.2,248.3 L 725.9,231.8 L 740.4,216.6 L 748.4,211.5 L 748.3,208.4 L 754.7,205.3 L 777.3,208.0 L 789.9,197.0 L 792.8,188.3 L 792.7,178.4 L 796.2,169.4 L 822.1,153.9 L 823.7,150.7 L 829.5,150.4 L 828.2,156.2 L 822.3,155.6 L 800.9,169.3 L 789.8,202.1 L 774.5,212.4 L 767.4,209.3 L 754.0,209.0 L 733.4,229.3 L 732.4,235.9 L 727.4,237.8 L 725.0,246.4 L 694.7,275.9 L 691.2,283.4 L 686.5,286.7 L 673.8,303.9 L 663.3,312.7 L 658.3,313.8 L 657.0,316.2 L 654.4,315.8 L 654.6,318.4 L 651.4,317.9 L 642.4,323.3 L 642.7,347.4 L 649.0,347.2 L 646.3,352.9 L 642.2,351.7 L 645.9,360.6 L 642.6,359.4 L 640.8,363.5 L 645.1,371.8 L 650.7,378.2 L 654.5,379.2 L 655.1,381.5 L 653.9,387.9 L 655.7,390.0 L 650.9,398.2 L 649.6,406.6 L 634.9,414.8 L 617.2,431.0 L 617.5,434.3 L 610.2,439.0 L 607.4,448.6 L 611.1,452.3 L 609.8,453.1 L 611.7,455.8 L 611.5,465.9 L 602.9,472.7 L 593.9,476.3 L 593.2,479.0 L 598.3,480.8 L 596.4,486.6 L 588.4,484.5 L 586.3,487.1 L 583.4,494.1 L 584.8,497.5 L 581.9,502.4 L 587.4,505.4 L 583.7,504.7 L 579.6,506.6 L 580.1,509.7 L 582.0,510.3 L 575.6,515.3 L 580.6,519.6 L 580.0,521.6 L 574.0,525.1 L 573.2,520.3 L 567.7,525.2 L 559.5,527.5 L 552.0,532.6 L 547.7,532.6 L 551.0,534.6 L 551.0,538.5 L 544.9,539.2 L 539.0,536.2 L 536.3,538.1 L 544.8,555.2 L 545.3,560.0 L 542.4,564.5 L 540.4,563.4 L 536.2,565.8 L 537.7,568.9 L 535.8,570.3 L 530.9,571.5 L 528.1,569.9 L 527.4,572.6 L 522.7,572.3 L 522.4,575.2 L 530.2,575.6 L 535.7,581.6 L 533.0,583.8 L 531.7,582.2 L 527.6,583.1 L 528.0,585.1 L 525.3,586.5 L 528.3,587.7 L 527.9,589.8 L 524.1,590.6 L 519.6,586.5 L 514.8,590.2 L 513.7,597.0 L 510.2,598.8 L 508.1,595.3 L 485.1,599.0 L 482.8,596.5 L 477.3,598.0 L 468.9,594.8 L 466.1,596.4 L 460.6,593.3 L 463.7,597.6 L 461.2,608.2 L 459.9,608.3 L 456.8,599.2 L 453.7,597.4 L 455.8,609.4 L 451.0,608.4 L 451.2,615.0 L 446.7,612.8 L 442.5,618.1 L 437.9,619.0 L 438.3,622.6 L 435.1,619.2 L 433.3,621.2 L 435.8,629.9 L 439.3,632.8 L 438.3,636.6 L 435.7,636.4 L 432.3,631.3 L 422.6,629.4 L 419.6,631.4 L 418.7,637.6 L 416.6,638.0 L 414.8,633.3 L 409.0,631.8 L 399.3,637.5 L 398.7,632.9 L 393.0,629.2 L 386.8,634.6 L 387.1,624.8 L 381.4,619.3 L 376.3,620.0 L 375.0,626.4 L 373.7,623.0 L 369.0,619.7 L 364.9,620.6 L 362.9,625.8 L 358.7,626.0 L 358.2,623.5 L 338.1,616.6 L 338.3,608.3 L 330.2,604.2 L 328.5,597.5 L 311.3,592.7 L 305.3,587.9 L 298.7,590.6 L 293.4,587.1 L 288.6,592.5 L 286.7,588.1 L 284.6,587.9 L 284.1,584.4 L 281.6,584.4 L 287.8,577.6 L 278.5,564.7 L 274.8,568.9 L 274.6,575.4 L 271.6,573.3 L 265.2,577.5 L 248.5,579.6 L 248.8,576.5 L 242.9,576.0 L 244.2,570.8 L 231.9,559.6 L 227.9,546.2 L 221.2,547.8 L 223.3,552.2 L 221.6,556.0 L 219.4,556.7 L 218.6,554.9 L 216.2,554.9 L 215.7,551.1 L 211.3,557.5 L 204.7,554.4 L 200.3,555.9 L 198.4,553.6 L 185.2,550.9 L 182.0,553.1 L 181.3,559.2 L 179.1,560.4 L 177.7,550.8 L 173.9,549.9 L 171.4,552.2 L 173.3,555.0 L 171.9,558.2 L 166.0,564.9 L 143.1,569.5 L 139.7,563.5 L 132.9,562.6 L 129.5,565.3 L 127.5,560.5 L 121.7,559.3 L 118.0,555.0 L 96.3,544.8 L 88.8,542.8 L 89.3,546.4 L 75.7,553.0 L 75.5,548.1 L 71.2,547.1 L 72.5,546.3 L 75.4,535.5 L 84.4,524.8 L 101.0,527.3 L 106.1,524.7 L 106.2,526.9 L 110.9,525.8 L 108.6,531.1 L 110.2,533.3 L 115.7,534.7 L 118.1,539.7 L 122.9,538.3 L 123.9,542.6 L 132.3,545.9 L 134.6,542.2 L 131.9,527.9 L 127.6,522.3 L 129.7,517.9 L 135.8,526.3 L 138.0,534.5 L 144.8,537.1 L 146.5,544.0 L 155.5,540.5 L 154.3,530.8 L 157.8,521.3 L 167.1,527.3 L 167.0,529.0 L 161.5,531.3 L 165.1,535.5 L 169.5,534.7 L 170.6,527.7 L 174.8,534.6 L 179.2,532.0 L 182.5,534.0 L 193.1,533.7 L 207.8,526.3 L 208.0,519.4 L 211.5,510.4 L 215.9,509.3 L 213.9,512.4 L 214.8,519.1 L 226.7,519.5 L 232.5,517.2 L 237.4,519.5 L 254.3,531.6 L 257.9,536.6 L 258.1,541.5 L 263.2,546.3 L 270.7,544.8 L 278.4,539.9 L 275.8,546.2 L 277.0,548.3 L 273.9,551.8 L 281.2,550.9 L 282.9,554.7 L 287.1,556.1 L 289.8,553.4 L 296.1,553.8 L 297.0,552.2 L 302.8,556.5 L 306.6,556.3 L 313.2,563.8 L 304.5,560.8 L 300.1,563.7 L 304.7,572.5 L 312.0,580.4 L 322.5,580.4 L 329.8,584.8 L 341.6,588.1 L 342.6,590.9 L 349.6,592.3 L 350.6,594.9 L 356.4,595.2 L 361.9,598.5 L 378.8,596.7 L 387.6,588.9 L 390.1,593.3 L 394.3,593.5 L 394.8,595.7 L 417.8,599.3 L 423.9,589.9 L 426.7,590.7 L 441.5,580.5 L 447.6,582.1 L 459.4,577.1 L 461.2,578.1 Z" fill="url(#wg)" stroke="#5eb4e7" stroke-opacity="0.9" stroke-width="1.6"/>
<path d="M 79.8,545.2 L 78.6,543.9 L 80.2,537.9 L 86.5,530.4 L 103.5,531.9 L 106.6,537.0 L 112.0,539.1 L 115.1,544.0 L 132.6,551.1 L 136.9,548.6 L 139.4,544.3 L 139.7,540.7 L 142.3,547.3 L 147.7,549.0 L 158.7,544.6 L 160.5,542.0 L 160.5,538.3 L 165.3,540.8 L 172.3,539.1 L 176.1,539.7 L 179.2,538.1 L 182.4,539.2 L 194.1,538.8 L 210.7,530.6 L 212.7,528.0 L 213.1,524.1 L 226.8,524.7 L 232.3,522.8 L 250.5,535.4 L 252.8,538.4 L 253.8,544.3 L 260.6,550.8 L 268.6,550.6 L 269.1,554.0 L 271.4,556.3 L 278.0,556.6 L 280.3,559.2 L 285.7,561.1 L 289.3,560.8 L 291.9,558.7 L 297.4,559.0 L 295.2,562.1 L 295.4,565.9 L 300.4,575.4 L 307.5,583.2 L 304.2,582.7 L 299.3,584.7 L 294.4,582.0 L 289.9,583.2 L 292.7,579.4 L 292.4,575.2 L 282.7,561.6 L 279.1,559.5 L 275.0,560.6 L 269.6,568.6 L 263.3,572.5 L 253.3,573.8 L 249.5,571.3 L 247.9,567.2 L 236.5,556.7 L 232.9,544.3 L 228.5,541.1 L 219.0,543.1 L 216.3,545.9 L 212.1,547.1 L 209.4,550.9 L 186.1,545.8 L 181.4,547.1 L 172.7,544.9 L 167.1,549.3 L 166.2,552.4 L 167.2,555.6 L 163.2,560.2 L 145.8,563.7 L 142.0,558.8 L 131.8,557.5 L 124.4,554.6 L 120.5,550.5 L 97.7,539.8 L 87.4,537.8 L 84.3,539.9 L 83.3,543.5 L 79.8,545.2 Z" fill="#0e2233" stroke="#5eb4e7" stroke-opacity="0.22" stroke-width="1"/><path d="M 310.5,585.3 L 321.1,585.6 L 327.7,589.5 L 337.6,592.4 L 339.6,595.1 L 345.7,596.8 L 348.6,599.7 L 354.9,600.3 L 360.8,603.6 L 380.1,601.8 L 386.4,597.0 L 393.8,600.8 L 419.3,604.3 L 422.0,602.6 L 426.2,595.9 L 429.4,595.1 L 442.5,586.1 L 448.5,587.2 L 459.1,582.9 L 462.4,583.2 L 472.6,579.8 L 483.0,579.2 L 491.2,571.6 L 502.2,567.7 L 505.3,563.7 L 509.5,564.3 L 512.9,562.5 L 520.2,553.8 L 520.9,549.6 L 517.0,540.7 L 509.5,538.3 L 506.0,533.7 L 506.1,523.3 L 500.9,516.8 L 502.7,512.7 L 507.5,511.0 L 511.1,505.6 L 525.0,500.5 L 530.2,504.8 L 534.2,505.3 L 537.4,507.5 L 538.6,511.1 L 542.8,515.0 L 547.1,515.9 L 554.4,511.7 L 564.2,509.7 L 574.8,496.5 L 578.2,494.4 L 579.0,497.1 L 574.6,505.0 L 574.7,509.3 L 571.3,512.3 L 570.4,515.9 L 565.1,520.5 L 557.4,522.7 L 550.4,527.4 L 545.1,528.1 L 542.4,532.0 L 537.5,531.2 L 532.0,535.3 L 531.3,540.2 L 539.9,558.2 L 533.0,561.8 L 531.0,565.5 L 526.5,565.0 L 518.5,569.2 L 517.2,576.4 L 519.4,579.5 L 523.1,580.5 L 522.5,581.9 L 516.6,582.3 L 510.8,586.9 L 509.5,590.3 L 487.1,593.4 L 483.6,591.3 L 477.5,592.5 L 470.1,589.7 L 466.0,590.3 L 461.8,588.2 L 458.6,588.5 L 455.3,592.4 L 451.9,592.6 L 449.3,594.5 L 448.3,597.6 L 449.3,603.4 L 445.8,607.7 L 439.6,613.3 L 433.5,614.2 L 430.6,616.1 L 428.1,620.6 L 429.0,625.3 L 421.7,624.3 L 415.6,628.1 L 408.4,626.7 L 402.6,629.4 L 395.6,624.7 L 392.2,624.0 L 385.2,615.6 L 381.9,614.1 L 373.0,616.0 L 367.9,614.6 L 362.7,615.9 L 360.0,618.7 L 343.4,612.9 L 342.6,605.4 L 334.7,600.6 L 331.4,593.2 L 313.7,588.0 L 310.5,585.3 Z" fill="#0e2233" stroke="#5eb4e7" stroke-opacity="0.22" stroke-width="1"/><path d="M 580.5,487.4 L 578.6,482.3 L 583.8,479.2 L 598.4,455.7 L 601.0,448.1 L 600.3,443.8 L 603.6,441.2 L 606.0,433.5 L 612.3,429.1 L 611.9,431.7 L 605.7,436.4 L 602.3,447.8 L 606.5,457.5 L 606.4,463.3 L 600.3,468.1 L 590.5,472.3 L 588.0,479.4 L 584.4,481.0 L 580.5,487.4 Z" fill="#0e2233" stroke="#5eb4e7" stroke-opacity="0.22" stroke-width="1"/><path d="M 634.6,409.0 L 636.3,396.1 L 631.4,382.0 L 633.0,378.4 L 631.8,374.7 L 633.3,370.6 L 633.2,360.3 L 626.7,342.9 L 631.7,332.9 L 637.2,329.9 L 637.0,352.3 L 638.4,356.4 L 635.8,364.7 L 640.9,374.9 L 649.5,383.3 L 649.4,390.5 L 645.9,396.7 L 644.8,403.3 L 634.6,409.0 Z" fill="#0e2233" stroke="#5eb4e7" stroke-opacity="0.22" stroke-width="1"/><path d="M 218.1,534.7 L 219.5,532.7 L 231.8,531.8 L 244.7,541.2 L 246.9,548.7 L 254.4,556.4 L 263.1,559.7 L 264.1,560.8 L 262.7,563.1 L 256.3,565.1 L 243.7,552.3 L 240.3,540.9 L 234.8,534.8 L 228.2,532.8 L 218.1,534.7 Z" fill="#0c1e2e" stroke="#5eb4e7" stroke-opacity="0.15" stroke-width="1"/><path d="M 403.1,619.8 L 397.7,616.7 L 387.2,607.2 L 416.2,612.6 L 424.2,611.1 L 420.9,616.1 L 413.7,619.2 L 407.7,618.5 L 403.1,619.8 Z" fill="#0c1e2e" stroke="#5eb4e7" stroke-opacity="0.15" stroke-width="1"/><path d="M 489.7,584.7 L 495.2,579.2 L 509.0,572.8 L 509.1,577.7 L 504.0,582.4 L 489.7,584.7 Z" fill="#0c1e2e" stroke="#5eb4e7" stroke-opacity="0.15" stroke-width="1"/><path d="M 523.2,535.4 L 519.4,532.5 L 514.3,531.0 L 514.4,523.4 L 512.3,517.6 L 516.7,512.1 L 522.9,509.5 L 530.5,513.4 L 539.1,522.4 L 532.7,524.4 L 527.9,527.7 L 523.2,535.4 Z" fill="#0c1e2e" stroke="#5eb4e7" stroke-opacity="0.15" stroke-width="1"/>
<text x="588" y="432" fill="#8ea6be" font-size="11.5" letter-spacing="1.6" text-anchor="middle">SALT RIVER</text><line x1="15" y1="559" x2="135" y2="559" stroke="#8ea6be" stroke-width="3" stroke-opacity="0.8"/><text x="75" y="591" fill="#8ea6be" font-size="11.5" letter-spacing="3" text-anchor="middle">HORSE MESA DAM</text><circle cx="458" cy="604" r="6" fill="#eaf1f8" stroke="#5eb4e7" stroke-width="2"/><text x="472" y="608" fill="#eaf1f8" font-size="10.5" letter-spacing="1.2" text-anchor="start">APACHE LAKE MARINA</text><circle cx="510" cy="599" r="6" fill="#eaf1f8" stroke="#5eb4e7" stroke-width="2"/><text x="524" y="585" fill="#eaf1f8" font-size="10.5" letter-spacing="1.2" text-anchor="start">BURNT CORRAL</text><circle cx="341" cy="615" r="5" fill="#4fc27a" filter="url(#glow)"/><text x="327" y="619" fill="#4fc27a" font-size="10.5" letter-spacing="1.2" text-anchor="end">LARGEMOUTH · COVES</text><circle cx="164" cy="562" r="5" fill="none" stroke="#5eb4e7" stroke-width="1.6" filter="url(#glow)"/><text x="178" y="566" fill="#5eb4e7" font-size="10.5" letter-spacing="1.2" text-anchor="start">WALLEYE · DEEP CHANNEL</text><circle cx="423" cy="607" r="5" fill="#f5b44c" filter="url(#glow)"/><text x="437" y="629" fill="#f5b44c" font-size="10.5" letter-spacing="1.2" text-anchor="start">YELLOW BASS · SCHOOLS</text>
<text x="56" y="64" fill="#eaf1f8" font-size="30" letter-spacing="6" font-weight="300">APACHE LAKE</text>
<text x="56" y="88" fill="#8ea6be" font-size="11.5" letter-spacing="3">STRUCTURE &amp; SEASONAL MAP · MARICOPA CO. ARIZONA</text>
<line x1="56" y1="102" x2="248" y2="102" stroke="#5eb4e7" stroke-width="2"/>
<text x="56" y="122" fill="#8ea6be" font-size="10" letter-spacing="1.5" opacity="0.85">SHORELINE: OPENSTREETMAP · ZONES: GENERAL SEASONAL AREAS PER AZGFD SPECIES LISTS</text>
<g>
 <rect x="640" y="30" width="204" height="86" rx="10" fill="#13202e" stroke="#5eb4e7" stroke-opacity="0.35"/>
 <text x="742" y="52" fill="#8ea6be" font-size="10" letter-spacing="2" text-anchor="middle">WATER LEVEL TODAY</text>
 <text x="742" y="78" fill="#eaf1f8" font-size="21" letter-spacing="1" text-anchor="middle" font-weight="600">1,906.60 FT · 92%</text>
 <text x="742" y="100" fill="#f5b44c" font-size="10.5" letter-spacing="1.2" text-anchor="middle">−7.40 FT BELOW FULL (1,914 FT)</text>
</g>
<g font-size="10.5" letter-spacing="1.1">
 <rect x="56" y="688" width="788" height="108" rx="10" fill="#13202e" stroke="#ffffff" stroke-opacity="0.08"/>
 <circle cx="80" cy="714" r="5" fill="#eaf1f8" stroke="#5eb4e7" stroke-width="1.6"/><text x="96" y="718" fill="#8ea6be">BOAT RAMP / MARINA</text>
 <circle cx="80" cy="740" r="4.5" fill="#4fc27a"/><text x="96" y="744" fill="#8ea6be">SOLID = PRIMARY ZONE</text>
 <circle cx="80" cy="766" r="4.5" fill="none" stroke="#4fc27a"/><text x="96" y="770" fill="#8ea6be">RING = STRUCTURE / SCHOOLING</text>
 <line x1="330" y1="710" x2="350" y2="710" stroke="#5eb4e7" stroke-opacity="0.9" stroke-width="2"/><text x="360" y="714" fill="#8ea6be">CURRENT WATERLINE · 92%</text>
 <line x1="330" y1="736" x2="350" y2="736" stroke="#8ea6be" stroke-opacity="0.5" stroke-dasharray="5 4"/><text x="360" y="740" fill="#8ea6be">FULL POOL 1,914 FT</text>
 <rect x="330" y="756" width="20" height="9" fill="#241f19"/><text x="360" y="766" fill="#8ea6be">EXPOSED BANK</text>
 <text x="600" y="714" fill="#8ea6be">DEPTH CONTOURS = RELATIVE</text>
 <text x="600" y="740" fill="#8ea6be">WATERLINE: STORAGE MODEL</text>
 <text x="600" y="766" fill="#8ea6be">LOCAL BANKS VARY</text>
</g>
<text x="844" y="834" fill="#8ea6be" font-size="10" letter-spacing="1.5" text-anchor="end" opacity="0.8">STYLIZED — NOT FOR NAVIGATION · b4u.fish</text>
<g transform="translate(862,158)" stroke="#8ea6be" fill="#8ea6be"><line x1="0" y1="14" x2="0" y2="-14" stroke-width="1.2"/><path d="M 0,-14 l 5,9 h -10 z" stroke="none"/><text x="0" y="-20" font-size="10" text-anchor="middle" stroke="none">N</text></g>
</svg>