<svg xmlns="http://www.w3.org/2000/svg" viewBox="0 0 900 778" font-family="Helvetica,Arial,sans-serif">
<defs>
 <radialGradient id="wg" cx="45%" cy="60%" r="80%"><stop offset="0%" stop-color="#0c1f31"/><stop offset="55%" stop-color="#102639"/><stop offset="100%" stop-color="#13293c"/></radialGradient>
 <filter id="glow"><feGaussianBlur stdDeviation="2.2" result="b"/><feMerge><feMergeNode in="b"/><feMergeNode in="SourceGraphic"/></feMerge></filter>
</defs>
<rect width="900" height="778" fill="#0a1420"/>
<g stroke="#ffffff" stroke-opacity="0.025"><line x1="60" y1="0" x2="60" y2="778"/><line x1="120" y1="0" x2="120" y2="778"/><line x1="180" y1="0" x2="180" y2="778"/><line x1="240" y1="0" x2="240" y2="778"/><line x1="300" y1="0" x2="300" y2="778"/><line x1="360" y1="0" x2="360" y2="778"/><line x1="420" y1="0" x2="420" y2="778"/><line x1="480" y1="0" x2="480" y2="778"/><line x1="540" y1="0" x2="540" y2="778"/><line x1="600" y1="0" x2="600" y2="778"/><line x1="660" y1="0" x2="660" y2="778"/><line x1="720" y1="0" x2="720" y2="778"/><line x1="780" y1="0" x2="780" y2="778"/><line x1="840" y1="0" x2="840" y2="778"/><line x1="0" y1="60" x2="900" y2="60"/><line x1="0" y1="120" x2="900" y2="120"/><line x1="0" y1="180" x2="900" y2="180"/><line x1="0" y1="240" x2="900" y2="240"/><line x1="0" y1="300" x2="900" y2="300"/><line x1="0" y1="360" x2="900" y2="360"/><line x1="0" y1="420" x2="900" y2="420"/><line x1="0" y1="480" x2="900" y2="480"/><line x1="0" y1="540" x2="900" y2="540"/><line x1="0" y1="600" x2="900" y2="600"/><line x1="0" y1="660" x2="900" y2="660"/><line x1="0" y1="720" x2="900" y2="720"/></g>
<path d="M 133.1,175.8 L 138.1,168.8 L 139.0,171.9 L 135.9,178.1 L 138.4,180.6 L 155.9,177.0 L 157.7,181.0 L 163.7,182.5 L 167.2,180.5 L 166.0,183.6 L 173.0,193.4 L 182.8,177.3 L 182.1,183.1 L 190.3,191.7 L 185.0,199.6 L 188.4,200.6 L 196.3,197.3 L 197.1,188.9 L 200.0,188.9 L 197.5,182.8 L 201.4,176.5 L 199.6,173.4 L 201.5,171.2 L 208.3,177.8 L 207.0,193.0 L 211.8,194.8 L 211.5,198.7 L 207.9,200.8 L 208.6,203.8 L 218.3,206.2 L 215.7,209.8 L 218.2,215.5 L 225.6,216.4 L 232.2,225.5 L 242.2,212.5 L 246.9,222.3 L 245.7,225.7 L 241.3,228.1 L 241.8,230.8 L 244.6,229.1 L 245.3,232.8 L 250.7,234.8 L 256.1,240.7 L 270.3,245.1 L 271.3,246.9 L 267.8,254.1 L 271.5,266.8 L 282.8,274.9 L 290.3,291.3 L 296.6,296.1 L 297.1,299.8 L 302.8,300.0 L 309.5,293.2 L 310.6,294.3 L 306.7,304.2 L 299.7,311.3 L 301.2,314.7 L 315.0,308.4 L 318.8,304.1 L 324.0,306.3 L 324.5,301.4 L 327.6,304.1 L 334.1,300.0 L 334.5,303.2 L 330.7,307.3 L 334.5,309.8 L 337.9,309.2 L 340.8,304.9 L 344.9,306.2 L 350.0,312.0 L 350.6,321.1 L 352.8,317.8 L 352.1,322.8 L 359.6,315.7 L 361.6,316.3 L 356.6,327.9 L 371.8,317.4 L 371.7,321.9 L 365.6,334.5 L 362.5,336.1 L 355.7,334.8 L 350.2,345.2 L 351.9,355.1 L 356.9,355.6 L 364.8,348.5 L 365.6,342.6 L 369.6,341.4 L 368.3,347.0 L 372.5,349.1 L 368.9,350.5 L 371.1,352.8 L 368.0,355.3 L 367.2,359.7 L 361.0,362.7 L 367.9,362.5 L 361.7,366.2 L 363.1,369.3 L 361.1,371.5 L 365.8,377.2 L 377.1,377.2 L 376.0,380.6 L 383.5,383.6 L 384.8,380.1 L 388.8,380.7 L 386.9,378.0 L 390.2,377.9 L 396.5,362.2 L 407.0,367.6 L 411.3,364.7 L 412.0,360.7 L 414.8,362.1 L 416.5,360.5 L 417.3,365.2 L 425.2,369.8 L 428.1,367.9 L 428.5,363.9 L 430.2,366.8 L 436.9,364.4 L 435.1,370.6 L 440.0,367.4 L 448.4,369.5 L 449.1,364.5 L 443.5,360.8 L 449.3,361.1 L 456.7,376.7 L 464.2,374.9 L 464.0,381.0 L 473.1,388.3 L 478.2,404.1 L 492.7,416.5 L 498.1,405.4 L 504.4,401.2 L 505.7,396.5 L 491.4,389.6 L 481.0,374.8 L 473.8,349.9 L 475.0,344.3 L 484.3,341.6 L 486.8,350.3 L 490.0,352.7 L 489.1,357.1 L 499.2,359.7 L 502.0,368.3 L 507.6,364.0 L 503.7,372.1 L 506.6,377.8 L 505.6,384.5 L 510.7,393.8 L 511.8,410.0 L 518.6,418.7 L 520.4,420.1 L 521.8,417.5 L 530.9,428.4 L 533.1,424.2 L 539.1,427.5 L 537.6,422.7 L 540.4,423.2 L 541.3,421.2 L 535.3,415.1 L 539.6,417.1 L 542.8,413.6 L 545.0,416.2 L 547.0,408.9 L 550.2,410.3 L 551.6,418.5 L 562.5,424.0 L 571.9,426.5 L 580.6,423.1 L 583.1,424.1 L 580.1,424.1 L 573.2,430.6 L 577.4,434.1 L 585.4,430.4 L 591.0,420.1 L 595.2,420.5 L 592.2,431.1 L 586.5,439.3 L 591.9,442.0 L 600.9,442.5 L 603.5,440.3 L 608.2,422.8 L 610.8,423.5 L 612.9,427.2 L 608.9,430.8 L 608.2,441.8 L 613.2,440.4 L 615.4,436.9 L 617.0,439.0 L 618.3,437.3 L 617.7,443.8 L 622.2,442.8 L 617.5,446.9 L 633.2,458.1 L 650.8,460.2 L 657.7,464.1 L 660.7,469.4 L 670.3,462.0 L 670.0,472.1 L 675.2,470.7 L 675.6,473.5 L 680.2,475.4 L 685.5,471.8 L 685.0,476.4 L 687.3,478.2 L 693.8,474.7 L 692.3,468.1 L 696.4,462.0 L 695.8,467.7 L 698.4,473.0 L 702.1,470.0 L 704.3,471.6 L 710.5,470.2 L 714.2,464.2 L 712.7,470.7 L 715.8,470.6 L 728.0,462.2 L 722.1,470.8 L 727.3,467.5 L 729.3,471.0 L 733.7,468.2 L 734.0,471.9 L 740.5,471.6 L 750.9,479.1 L 758.8,489.9 L 766.6,494.7 L 769.8,494.0 L 767.7,497.4 L 772.3,503.2 L 774.6,502.6 L 774.0,515.0 L 780.8,512.5 L 784.9,507.1 L 804.8,512.3 L 804.9,514.2 L 808.8,513.7 L 830.0,527.1 L 827.3,530.1 L 815.7,521.8 L 798.4,515.8 L 787.4,521.2 L 781.8,543.4 L 768.6,552.7 L 746.9,552.7 L 742.6,549.1 L 742.5,544.4 L 731.0,556.3 L 724.3,568.4 L 719.5,562.4 L 718.8,556.2 L 721.2,549.9 L 720.1,541.3 L 730.1,528.6 L 732.1,522.5 L 732.3,516.8 L 729.1,513.8 L 722.3,519.2 L 716.0,520.7 L 711.8,529.4 L 708.6,521.2 L 698.8,521.9 L 690.1,517.8 L 691.1,522.1 L 687.5,522.1 L 687.7,518.9 L 685.5,517.6 L 683.5,522.3 L 681.6,519.9 L 678.6,520.6 L 673.5,526.9 L 672.3,532.3 L 670.0,524.3 L 661.5,522.7 L 659.2,533.6 L 662.8,538.9 L 661.6,546.0 L 659.2,546.8 L 660.2,539.9 L 656.7,538.6 L 651.5,548.6 L 650.2,542.8 L 654.7,532.9 L 655.7,523.7 L 652.6,526.4 L 652.6,531.4 L 649.6,535.9 L 647.9,530.2 L 642.7,536.6 L 639.6,533.0 L 640.9,528.1 L 633.6,529.9 L 633.5,547.1 L 631.7,543.5 L 626.1,540.4 L 626.0,533.7 L 622.3,536.0 L 619.1,531.0 L 612.5,533.7 L 613.0,521.2 L 606.9,511.2 L 603.5,518.3 L 603.2,527.2 L 600.2,523.0 L 597.8,525.9 L 594.1,522.9 L 593.9,516.9 L 590.9,514.1 L 586.7,514.1 L 583.5,518.7 L 579.3,517.8 L 575.0,510.6 L 569.5,513.4 L 568.1,505.9 L 565.1,514.3 L 559.9,500.0 L 555.9,505.1 L 557.3,499.9 L 555.4,496.9 L 543.8,511.7 L 545.0,503.0 L 541.5,501.7 L 534.9,505.9 L 535.0,501.1 L 532.9,499.7 L 535.2,494.9 L 534.3,489.4 L 530.9,497.4 L 526.6,491.4 L 529.1,479.6 L 524.5,486.9 L 520.1,486.5 L 517.0,490.4 L 514.9,489.9 L 516.9,481.4 L 512.5,481.0 L 513.5,475.4 L 507.5,466.0 L 511.8,457.1 L 511.0,450.2 L 522.9,457.9 L 535.3,454.3 L 536.4,450.7 L 529.8,442.3 L 512.3,432.8 L 502.3,433.3 L 501.5,442.3 L 503.7,443.9 L 499.7,445.1 L 501.1,448.7 L 496.1,451.8 L 501.3,455.1 L 497.4,461.8 L 501.4,474.2 L 490.6,459.5 L 483.2,469.7 L 488.3,474.1 L 487.1,478.7 L 475.2,469.3 L 465.2,471.9 L 463.7,478.1 L 462.2,471.2 L 458.4,472.9 L 457.0,470.7 L 449.6,474.6 L 444.0,473.7 L 438.6,469.8 L 432.5,473.4 L 419.6,472.5 L 416.4,474.5 L 416.3,472.0 L 407.3,467.3 L 402.6,471.7 L 399.2,462.1 L 395.0,462.7 L 391.5,474.1 L 388.5,474.2 L 387.0,466.9 L 389.7,465.5 L 391.6,459.9 L 388.1,453.1 L 381.1,454.0 L 378.4,458.5 L 378.0,467.3 L 370.0,464.8 L 364.1,458.5 L 360.6,460.5 L 357.5,448.6 L 351.6,445.3 L 345.8,447.4 L 342.9,443.5 L 332.8,453.0 L 327.8,451.2 L 319.0,455.5 L 313.8,461.1 L 312.7,456.2 L 307.7,455.1 L 319.3,446.9 L 318.9,442.6 L 314.9,441.9 L 314.6,438.4 L 293.2,420.4 L 295.9,418.6 L 291.5,415.1 L 289.7,417.1 L 286.1,415.9 L 289.7,411.9 L 286.1,412.6 L 287.5,409.6 L 279.1,403.0 L 281.1,401.4 L 276.3,395.4 L 278.5,390.0 L 268.4,381.5 L 266.9,377.2 L 258.8,382.8 L 250.1,380.0 L 255.0,379.9 L 264.6,373.0 L 265.3,369.6 L 255.4,371.1 L 264.3,365.8 L 259.8,364.7 L 254.3,367.4 L 246.9,363.7 L 246.1,362.0 L 254.3,361.5 L 248.6,355.7 L 248.3,352.1 L 242.0,347.7 L 239.6,349.5 L 238.4,345.1 L 235.2,347.0 L 234.5,343.8 L 229.5,343.2 L 225.5,339.3 L 225.9,336.7 L 222.7,338.3 L 217.1,326.4 L 212.7,328.2 L 205.0,323.1 L 210.1,320.2 L 211.7,314.9 L 207.6,313.2 L 202.7,316.4 L 201.3,309.0 L 207.1,301.5 L 207.0,298.3 L 209.5,297.5 L 211.0,290.4 L 207.9,283.4 L 211.2,274.3 L 207.9,273.3 L 210.7,266.2 L 204.1,260.5 L 202.7,254.7 L 199.3,255.7 L 188.5,276.2 L 183.4,276.3 L 181.2,274.5 L 189.3,254.1 L 184.9,251.6 L 173.8,252.8 L 163.6,249.3 L 160.7,250.7 L 157.1,246.3 L 156.1,239.7 L 147.7,235.6 L 147.0,228.9 L 143.1,224.7 L 127.7,221.2 L 115.9,206.0 L 77.0,185.2 L 70.0,168.5 L 89.0,150.0 L 90.4,152.2 L 88.3,158.7 L 93.4,155.5 L 91.4,162.0 L 93.7,164.4 L 106.5,162.4 L 122.4,177.4 L 124.7,175.9 L 123.1,167.7 L 127.8,176.2 L 131.6,176.4 L 131.4,172.8 L 133.1,175.8 Z" fill="#241f19" fill-opacity="0.9" stroke="#8ea6be" stroke-opacity="0.5" stroke-width="1.2" stroke-dasharray="5 4"/>
<path d="M 84.0,171.2 L 90.7,175.7 L 103.7,175.8 L 119.5,188.7 L 129.3,188.0 L 135.8,192.0 L 151.3,190.9 L 158.6,193.3 L 166.0,202.8 L 174.6,205.0 L 181.7,210.8 L 189.6,212.3 L 198.3,209.2 L 210.7,224.5 L 256.1,253.6 L 261.2,272.2 L 272.9,281.4 L 280.2,297.2 L 288.6,307.7 L 288.6,314.8 L 293.8,323.7 L 299.8,326.3 L 306.8,325.6 L 321.9,317.8 L 332.2,321.2 L 338.9,320.9 L 344.3,331.4 L 338.6,343.8 L 340.6,358.2 L 344.3,364.0 L 349.9,366.6 L 350.3,375.9 L 358.4,386.2 L 383.7,395.3 L 396.6,389.3 L 402.9,378.5 L 414.1,376.9 L 423.7,381.4 L 446.0,381.5 L 463.6,395.6 L 468.1,410.1 L 477.9,420.9 L 491.8,428.1 L 490.1,438.4 L 484.7,449.4 L 476.5,457.7 L 447.1,461.5 L 439.1,458.1 L 429.7,461.4 L 420.1,460.8 L 399.8,450.5 L 395.7,444.3 L 388.5,440.8 L 376.8,443.1 L 370.8,448.4 L 365.3,439.9 L 354.2,433.9 L 340.4,432.1 L 329.8,438.5 L 292.6,399.1 L 288.8,384.6 L 278.4,374.6 L 272.9,357.9 L 262.7,353.3 L 256.3,343.6 L 245.3,335.6 L 236.8,332.3 L 223.2,316.5 L 222.2,309.1 L 218.7,304.6 L 222.6,291.9 L 220.5,282.9 L 222.8,274.8 L 222.2,264.0 L 211.5,247.0 L 203.4,242.2 L 195.2,244.0 L 186.8,240.0 L 174.3,241.0 L 168.8,238.9 L 150.0,215.3 L 141.3,211.1 L 134.7,211.1 L 122.7,196.6 L 85.7,176.8 L 84.0,171.2 Z" fill="url(#wg)" stroke="#5eb4e7" stroke-opacity="0.9" stroke-width="1.6"/><path d="M 542.6,438.6 L 550.2,430.9 L 562.9,436.2 L 570.9,443.8 L 587.7,452.9 L 607.8,453.5 L 628.4,468.8 L 648.1,472.1 L 655.5,479.9 L 684.2,489.4 L 690.8,489.4 L 710.5,482.2 L 735.6,483.5 L 751.1,498.7 L 756.8,501.6 L 762.5,509.7 L 764.5,521.9 L 773.9,526.7 L 771.5,536.4 L 764.9,541.0 L 753.7,541.0 L 749.0,534.7 L 741.0,532.8 L 743.6,524.1 L 743.5,513.6 L 739.1,506.3 L 731.7,502.4 L 724.8,502.9 L 711.5,509.9 L 701.0,510.0 L 692.8,506.5 L 683.4,506.1 L 670.3,512.4 L 651.6,512.5 L 644.7,517.0 L 638.1,516.8 L 625.7,521.4 L 616.1,504.0 L 610.7,500.1 L 602.9,500.2 L 597.4,504.4 L 583.7,502.8 L 558.7,485.7 L 551.8,485.8 L 546.2,489.6 L 538.2,472.3 L 528.8,468.0 L 540.5,464.8 L 546.0,458.9 L 547.8,448.5 L 542.6,438.6 Z" fill="url(#wg)" stroke="#5eb4e7" stroke-opacity="0.9" stroke-width="1.6"/>
<path d="M 547.2,470.6 L 552.8,464.4 L 555.8,456.3 L 555.0,442.8 L 584.3,460.7 L 604.5,462.4 L 624.6,476.5 L 643.5,480.2 L 652.2,487.8 L 681.8,497.7 L 668.4,503.1 L 650.1,504.0 L 629.9,510.0 L 622.7,498.5 L 615.7,492.9 L 606.1,490.9 L 595.5,494.4 L 586.3,493.9 L 563.5,478.4 L 550.5,477.3 L 547.2,470.6 Z" fill="#0e2233" stroke="#5eb4e7" stroke-opacity="0.22" stroke-width="1"/><path d="M 692.6,497.7 L 710.9,490.9 L 727.9,491.2 L 735.5,494.6 L 724.0,494.2 L 710.8,501.1 L 702.7,501.3 L 692.6,497.7 Z" fill="#0e2233" stroke="#5eb4e7" stroke-opacity="0.22" stroke-width="1"/><path d="M 137.5,200.8 L 149.1,199.4 L 153.4,200.9 L 162.1,210.5 L 177.0,218.2 L 186.9,220.8 L 195.4,219.6 L 206.4,232.0 L 248.2,259.3 L 253.8,276.5 L 266.0,287.0 L 273.0,301.9 L 279.5,309.8 L 283.2,324.1 L 290.2,331.7 L 302.2,335.0 L 312.3,333.0 L 323.5,326.8 L 332.4,329.9 L 333.9,332.6 L 329.9,345.1 L 332.8,362.0 L 340.9,372.1 L 344.5,383.1 L 354.2,393.8 L 384.3,403.9 L 400.5,397.2 L 407.8,387.8 L 413.8,386.7 L 423.1,390.0 L 441.3,389.9 L 456.9,402.0 L 462.3,416.6 L 473.4,428.4 L 481.9,433.7 L 477.3,444.2 L 473.2,449.1 L 461.9,450.9 L 448.7,452.2 L 437.9,449.5 L 422.4,452.3 L 390.9,432.5 L 382.8,432.1 L 372.9,435.5 L 355.7,425.4 L 342.3,423.3 L 331.2,426.6 L 318.9,416.2 L 299.8,393.5 L 296.6,381.0 L 285.7,369.5 L 279.5,352.4 L 267.9,345.8 L 260.2,335.7 L 242.6,325.2 L 231.8,312.4 L 228.8,303.4 L 231.3,291.5 L 230.5,262.0 L 218.2,241.6 L 205.3,233.9 L 195.7,234.4 L 186.0,231.3 L 175.1,232.3 L 156.3,209.3 L 137.5,200.8 Z" fill="#0e2233" stroke="#5eb4e7" stroke-opacity="0.22" stroke-width="1"/><path d="M 244.6,287.0 L 255.6,296.5 L 266.2,314.9 L 269.2,325.7 L 246.6,310.1 L 243.0,302.0 L 244.6,287.0 Z" fill="#0c1e2e" stroke="#5eb4e7" stroke-opacity="0.15" stroke-width="1"/><path d="M 292.4,347.3 L 302.6,348.4 L 316.5,345.7 L 322.3,371.3 L 335.1,392.9 L 350.9,407.4 L 375.1,416.3 L 385.2,417.3 L 399.3,413.4 L 414.9,401.9 L 437.2,404.2 L 445.0,410.4 L 449.9,422.4 L 462.6,436.7 L 435.8,436.2 L 425.4,438.7 L 405.8,424.5 L 395.7,419.9 L 385.7,418.4 L 375.4,420.1 L 358.0,412.2 L 345.0,409.9 L 334.5,410.9 L 327.4,405.5 L 312.0,386.5 L 308.8,375.3 L 298.3,362.6 L 292.4,347.3 Z" fill="#0c1e2e" stroke="#5eb4e7" stroke-opacity="0.15" stroke-width="1"/>
<text x="724" y="592" fill="#8ea6be" font-size="11.5" letter-spacing="1.6" text-anchor="middle">SALT RIVER</text><text x="372" y="301" fill="#8ea6be" font-size="11.5" letter-spacing="1.6" text-anchor="middle">TONTO CREEK</text><line x1="251" y1="464" x2="371" y2="464" stroke="#8ea6be" stroke-width="3" stroke-opacity="0.8"/><text x="311" y="496" fill="#8ea6be" font-size="11.5" letter-spacing="3" text-anchor="middle">ROOSEVELT DAM</text><circle cx="492" cy="460" r="6" fill="#eaf1f8" stroke="#5eb4e7" stroke-width="2"/><text x="506" y="464" fill="#eaf1f8" font-size="10.5" letter-spacing="1.2" text-anchor="start">WINDY HILL</text><circle cx="250" cy="380" r="6" fill="#eaf1f8" stroke="#5eb4e7" stroke-width="2"/><text x="236" y="384" fill="#eaf1f8" font-size="10.5" letter-spacing="1.2" text-anchor="end">CHOLLA RAMP</text><circle cx="628" cy="514" r="5" fill="#4fc27a" filter="url(#glow)"/><text x="642" y="518" fill="#4fc27a" font-size="10.5" letter-spacing="1.2" text-anchor="start">LARGEMOUTH · SPRING COVES</text><circle cx="335" cy="326" r="5" fill="none" stroke="#4fc27a" stroke-width="1.6" filter="url(#glow)"/><text x="321" y="330" fill="#4fc27a" font-size="10.5" letter-spacing="1.2" text-anchor="end">CRAPPIE · SUBMERGED TIMBER</text><circle cx="317" cy="419" r="5" fill="#f5b44c" filter="url(#glow)"/><text x="303" y="423" fill="#f5b44c" font-size="10.5" letter-spacing="1.2" text-anchor="end">SMALLMOUTH · ROCKY POINTS</text>
<text x="56" y="64" fill="#eaf1f8" font-size="30" letter-spacing="6" font-weight="300">ROOSEVELT LAKE</text>
<text x="56" y="88" fill="#8ea6be" font-size="11.5" letter-spacing="3">STRUCTURE &amp; SEASONAL MAP · GILA CO. ARIZONA</text>
<line x1="56" y1="102" x2="248" y2="102" stroke="#5eb4e7" stroke-width="2"/>
<text x="56" y="122" fill="#8ea6be" font-size="10" letter-spacing="1.5" opacity="0.85">SHORELINE: OPENSTREETMAP · ZONES: GENERAL SEASONAL AREAS PER AZGFD SPECIES LISTS</text>
<g>
 <rect x="640" y="30" width="204" height="86" rx="10" fill="#13202e" stroke="#5eb4e7" stroke-opacity="0.35"/>
 <text x="742" y="52" fill="#8ea6be" font-size="10" letter-spacing="2" text-anchor="middle">WATER LEVEL TODAY</text>
 <text x="742" y="78" fill="#eaf1f8" font-size="21" letter-spacing="1" text-anchor="middle" font-weight="600">2,088.87 FT · 37%</text>
 <text x="742" y="100" fill="#f5b44c" font-size="10.5" letter-spacing="1.2" text-anchor="middle">−62.13 FT BELOW FULL (2,151 FT)</text>
</g>
<g font-size="10.5" letter-spacing="1.1">
 <rect x="56" y="618" width="788" height="108" rx="10" fill="#13202e" stroke="#ffffff" stroke-opacity="0.08"/>
 <circle cx="80" cy="644" r="5" fill="#eaf1f8" stroke="#5eb4e7" stroke-width="1.6"/><text x="96" y="648" fill="#8ea6be">BOAT RAMP / MARINA</text>
 <circle cx="80" cy="670" r="4.5" fill="#4fc27a"/><text x="96" y="674" fill="#8ea6be">SOLID = PRIMARY ZONE</text>
 <circle cx="80" cy="696" r="4.5" fill="none" stroke="#4fc27a"/><text x="96" y="700" fill="#8ea6be">RING = STRUCTURE / SCHOOLING</text>
 <line x1="330" y1="640" x2="350" y2="640" stroke="#5eb4e7" stroke-opacity="0.9" stroke-width="2"/><text x="360" y="644" fill="#8ea6be">CURRENT WATERLINE · 37%</text>
 <line x1="330" y1="666" x2="350" y2="666" stroke="#8ea6be" stroke-opacity="0.5" stroke-dasharray="5 4"/><text x="360" y="670" fill="#8ea6be">FULL POOL 2,151 FT</text>
 <rect x="330" y="686" width="20" height="9" fill="#241f19"/><text x="360" y="696" fill="#8ea6be">EXPOSED BANK</text>
 <text x="600" y="644" fill="#8ea6be">DEPTH CONTOURS = RELATIVE</text>
 <text x="600" y="670" fill="#8ea6be">WATERLINE: STORAGE MODEL</text>
 <text x="600" y="696" fill="#8ea6be">LOCAL BANKS VARY</text>
</g>
<text x="844" y="764" fill="#8ea6be" font-size="10" letter-spacing="1.5" text-anchor="end" opacity="0.8">STYLIZED — NOT FOR NAVIGATION · b4u.fish</text>
<g transform="translate(862,158)" stroke="#8ea6be" fill="#8ea6be"><line x1="0" y1="14" x2="0" y2="-14" stroke-width="1.2"/><path d="M 0,-14 l 5,9 h -10 z" stroke="none"/><text x="0" y="-20" font-size="10" text-anchor="middle" stroke="none">N</text></g>
</svg>